<?xml version="1.0" encoding="utf-8"?>
<!-- Generator: Adobe Illustrator 22.1.0, SVG Export Plug-In . SVG Version: 6.00 Build 0)  -->
<svg version="1.1" id="Layer_1" xmlns="http://www.w3.org/2000/svg" xmlns:xlink="http://www.w3.org/1999/xlink" x="0px" y="0px"
	 viewBox="0 0 557.4 174.6" style="enable-background:new 0 0 557.4 174.6;" xml:space="preserve">
<style type="text/css">
	.st0{fill:#E62727;}
	.st1{fill:#1C1C1C;}
</style>
<g>
	<g>
		<polygon class="st0" points="43.8,35.3 43.8,74 69.3,74 55.8,100.4 43.8,100.4 43.8,162.8 12,162.8 12,7.3 103.6,7.3 89.2,35.3 		
			"/>
		<rect x="110.5" y="109" class="st0" width="32.8" height="53.8"/>
		<path class="st0" d="M143.4,28.8v71.6H62.8L76.3,74h34.2V35.3H96.2l4.2-8.2c0,0,0-0.1,0-0.1l7.5-14.5l2.7-5.2h11.3
			C133.7,7.3,143.4,16.9,143.4,28.8z"/>
	</g>
	<g>
		<path class="st1" d="M196.6,50.7V29.1h14.4v1.4h-12.9v20.2H196.6z M198,41.2v-1.4h11.7v1.4H198z"/>
		<path class="st1" d="M215.3,50.7V34.6h1.5V39l-0.2-0.5c0.5-1.3,1.2-2.3,2.3-3c1.1-0.7,2.4-1,4-1V36c-0.1,0-0.1,0-0.2,0
			c-0.1,0-0.1,0-0.2,0c-1.8,0-3.2,0.6-4.2,1.7c-1,1.1-1.5,2.7-1.5,4.7v8.4H215.3z"/>
		<path class="st1" d="M230.6,50.8c-1.2,0-2.2-0.2-3.1-0.6c-0.9-0.4-1.5-0.9-2-1.6c-0.5-0.7-0.7-1.5-0.7-2.4c0-0.8,0.2-1.6,0.6-2.2
			c0.4-0.7,1-1.2,1.9-1.6c0.9-0.4,2.1-0.6,3.5-0.6h5.9v1.2h-5.9c-1.7,0-2.8,0.3-3.5,0.9c-0.7,0.6-1,1.4-1,2.3c0,1,0.4,1.9,1.2,2.5
			c0.8,0.6,1.9,0.9,3.3,0.9c1.4,0,2.5-0.3,3.4-0.9c0.9-0.6,1.6-1.5,2.1-2.7l0.4,1c-0.4,1.2-1.2,2.1-2.2,2.8
			C233.5,50.5,232.2,50.8,230.6,50.8z M236.4,50.7V47l-0.1-0.6v-6c0-1.5-0.4-2.6-1.2-3.4c-0.8-0.8-2-1.2-3.6-1.2
			c-1.1,0-2.1,0.2-3.1,0.6s-1.8,0.9-2.5,1.5l-0.8-1.1c0.8-0.7,1.8-1.3,2.9-1.7c1.1-0.4,2.3-0.6,3.5-0.6c2,0,3.5,0.5,4.6,1.5
			c1.1,1,1.6,2.5,1.6,4.5v10.2H236.4z"/>
		<path class="st1" d="M244.3,50.7V34.6h1.5v4.5l-0.2-0.5c0.5-1.3,1.3-2.3,2.4-3c1.1-0.7,2.5-1.1,4.2-1.1c1.3,0,2.5,0.3,3.4,0.8
			c1,0.5,1.7,1.3,2.3,2.3c0.5,1,0.8,2.3,0.8,3.8v9.4h-1.5v-9.3c0-1.8-0.5-3.2-1.4-4.1c-0.9-0.9-2.2-1.4-3.8-1.4
			c-1.3,0-2.3,0.3-3.3,0.8c-0.9,0.5-1.6,1.2-2.1,2.2c-0.5,0.9-0.7,2-0.7,3.3v8.6H244.3z"/>
		<path class="st1" d="M265,50.7V27.8h1.5v22.9H265z M266.2,46.2l0-1.9l10.6-9.7h2l-7.1,6.6l-0.9,0.8L266.2,46.2z M277.6,50.7
			l-7-8.8l1-1.1l7.9,10H277.6z"/>
		<path class="st1" d="M293.4,50.8c-1.2,0-2.3-0.3-3.3-0.8c-1-0.5-1.8-1.3-2.5-2.3l1-1c0.6,0.9,1.3,1.6,2.1,2
			c0.8,0.5,1.7,0.7,2.7,0.7c2.9,0,4.3-1.7,4.3-5.1V30.5h-8v-1.4h9.5v15.2c0,2.2-0.5,3.8-1.5,4.9C296.7,50.3,295.3,50.8,293.4,50.8z"
			/>
		<path class="st1" d="M306.1,50.7V34.6h1.5V39l-0.2-0.5c0.5-1.3,1.2-2.3,2.3-3c1.1-0.7,2.4-1,4-1V36c-0.1,0-0.1,0-0.2,0
			c-0.1,0-0.1,0-0.2,0c-1.8,0-3.2,0.6-4.2,1.7c-1,1.1-1.5,2.7-1.5,4.7v8.4H306.1z"/>
		<path class="st1" d="M317.7,50.8c-0.4,0-0.7-0.1-0.9-0.4c-0.3-0.3-0.4-0.6-0.4-0.9s0.1-0.7,0.4-0.9c0.3-0.2,0.6-0.4,0.9-0.4
			c0.3,0,0.7,0.1,0.9,0.4c0.3,0.2,0.4,0.6,0.4,0.9s-0.1,0.7-0.4,0.9C318.4,50.7,318.1,50.8,317.7,50.8z"/>
	</g>
	<g>
		<path class="st1" d="M162,145.8l36.1-81h18.5l36.2,81h-19.7l-29.6-71.5h7.4l-29.7,71.5H162z M180,128.4l5-14.2h41.6l5.1,14.2H180z
			"/>
		<path class="st1" d="M259.9,145.8V83.6h17.2v17.6l-2.4-5.1c1.9-4.4,4.8-7.7,8.9-10c4.1-2.3,9.1-3.4,14.9-3.4v16.7
			c-0.8-0.1-1.5-0.1-2.1-0.2c-0.6,0-1.3-0.1-2-0.1c-4.9,0-8.9,1.4-12,4.2c-3,2.8-4.6,7.2-4.6,13.1v29.4H259.9z"/>
		<path class="st1" d="M309.3,145.8V60h18v36.2l-1.2,18.4l0.3,18.5v12.7H309.3z M346.1,146.7c-5.5,0-10.2-1.2-14.1-3.5
			c-3.9-2.3-6.9-5.8-9-10.6c-2.1-4.7-3.1-10.7-3.1-18c0-7.3,1.1-13.3,3.3-18c2.2-4.7,5.3-8.2,9.2-10.5s8.5-3.5,13.8-3.5
			c5.9,0,11.1,1.3,15.8,3.9c4.7,2.6,8.4,6.3,11.1,11.1c2.7,4.8,4.1,10.4,4.1,17c0,6.5-1.4,12.1-4.1,16.9c-2.7,4.8-6.4,8.5-11.1,11.2
			C357.2,145.4,351.9,146.7,346.1,146.7z M342.9,131.9c3,0,5.7-0.7,8-2.1c2.4-1.4,4.2-3.4,5.7-6c1.4-2.6,2.1-5.6,2.1-9.2
			c0-3.6-0.7-6.7-2.1-9.3c-1.4-2.5-3.3-4.5-5.7-5.9c-2.4-1.4-5-2.1-8-2.1s-5.7,0.7-8.1,2.1c-2.4,1.4-4.3,3.4-5.7,5.9
			s-2.1,5.6-2.1,9.3c0,3.5,0.7,6.6,2.1,9.2c1.4,2.6,3.3,4.6,5.7,6C337.2,131.2,339.9,131.9,342.9,131.9z"/>
		<path class="st1" d="M398.1,74.9c-3.3,0-6-1-8.1-2.9c-2.1-1.9-3.1-4.3-3.1-7.2c0-2.9,1-5.2,3.1-7.2c2.1-1.9,4.8-2.9,8.1-2.9
			c3.3,0,6,0.9,8.1,2.7c2.1,1.8,3.1,4.1,3.1,7c0,3-1,5.5-3.1,7.5C404.2,73.9,401.5,74.9,398.1,74.9z M389.1,145.8V83.6h18v62.2
			H389.1z"/>
		<path class="st1" d="M444.8,146.7c-5.3,0-10.4-0.6-15.3-1.9c-4.9-1.3-8.8-2.9-11.6-4.8l6-13c2.9,1.8,6.2,3.2,10.1,4.3
			c3.9,1.1,7.7,1.7,11.5,1.7c4.2,0,7.1-0.5,8.8-1.5c1.7-1,2.6-2.4,2.6-4.2c0-1.5-0.7-2.6-2-3.3c-1.4-0.7-3.1-1.3-5.4-1.7
			c-2.2-0.4-4.7-0.8-7.3-1.2c-2.7-0.4-5.3-0.9-8-1.6c-2.7-0.7-5.2-1.6-7.4-2.9c-2.2-1.3-4-3.1-5.4-5.3c-1.4-2.2-2-5.1-2-8.7
			c0-3.9,1.1-7.4,3.4-10.4c2.3-3,5.6-5.4,9.9-7.1c4.3-1.7,9.5-2.6,15.5-2.6c4.2,0,8.6,0.5,13,1.4c4.4,0.9,8.1,2.3,11,4l-6,12.8
			c-3-1.8-6-3-9.1-3.6c-3-0.7-6-1-8.8-1c-4,0-6.9,0.5-8.8,1.6c-1.9,1.1-2.8,2.5-2.8,4.2c0,1.5,0.7,2.7,2,3.5
			c1.3,0.8,3.1,1.4,5.4,1.9c2.2,0.5,4.7,0.9,7.3,1.2c2.7,0.3,5.3,0.9,8,1.6c2.7,0.7,5.1,1.7,7.3,2.9c2.2,1.3,4,3,5.4,5.2
			c1.4,2.2,2.1,5.1,2.1,8.6c0,3.9-1.2,7.3-3.5,10.2c-2.3,3-5.6,5.3-10,7C456.4,145.9,451.1,146.7,444.8,146.7z"/>
		<path class="st1" d="M514.9,146.7c-6.6,0-12.5-1.4-17.6-4.2c-5.1-2.8-9.2-6.6-12.1-11.4c-3-4.8-4.5-10.3-4.5-16.5
			c0-6.2,1.5-11.8,4.5-16.6c3-4.8,7-8.6,12.1-11.3c5.1-2.7,11-4.1,17.6-4.1c6.6,0,12.4,1.4,17.6,4.1c5.2,2.7,9.2,6.5,12.1,11.3
			c2.9,4.8,4.4,10.3,4.4,16.7c0,6.2-1.5,11.7-4.4,16.5c-2.9,4.8-7,8.6-12.1,11.4C527.3,145.3,521.5,146.7,514.9,146.7z M514.9,131.9
			c3,0,5.7-0.7,8.1-2.1c2.4-1.4,4.3-3.4,5.7-6c1.4-2.6,2.1-5.6,2.1-9.2c0-3.6-0.7-6.7-2.1-9.3s-3.3-4.5-5.7-5.9
			c-2.4-1.4-5.1-2.1-8.1-2.1c-3,0-5.7,0.7-8.1,2.1c-2.4,1.4-4.3,3.4-5.7,5.9c-1.4,2.5-2.1,5.6-2.1,9.3c0,3.5,0.7,6.6,2.1,9.2
			c1.4,2.6,3.3,4.6,5.7,6C509.2,131.2,511.9,131.9,514.9,131.9z"/>
	</g>
</g>
</svg>
