<?xml version="1.0" encoding="utf-8"?>
<!-- Generator: Adobe Illustrator 22.1.0, SVG Export Plug-In . SVG Version: 6.00 Build 0)  -->
<svg version="1.1" id="Layer_1" xmlns="http://www.w3.org/2000/svg" xmlns:xlink="http://www.w3.org/1999/xlink" x="0px" y="0px"
	 viewBox="0 0 485.2 197.1" style="enable-background:new 0 0 485.2 197.1;" xml:space="preserve">
<style type="text/css">
	.st0{fill:#E62727;}
	.st1{fill:#212121;}
	.st2{fill:#1C1C1C;}
</style>
<g>
	<g>
		<polygon class="st0" points="38.8,40 38.8,73.4 60.8,73.4 49.1,96.1 38.8,96.1 38.8,149.8 11.4,149.8 11.4,15.9 90.2,15.9 
			77.9,40 		"/>
		<rect x="96.3" y="103.5" class="st0" width="28.3" height="46.4"/>
		<path class="st0" d="M124.5,34.4v61.6H55.1l11.7-22.7h29.5V40H83.9l3.6-7.1c0,0,0-0.1,0-0.1l6.4-12.5l2.3-4.5h9.7
			C116.2,15.9,124.5,24.2,124.5,34.4z"/>
	</g>
	<g>
		<path class="st1" d="M170.4,53.3V34.7h12.4v1.2h-11.1v17.4H170.4z M171.6,45v-1.2h10.1V45H171.6z"/>
		<path class="st1" d="M186.5,53.3V39.4h1.3v3.8l-0.1-0.4c0.4-1.1,1-2,2-2.6c0.9-0.6,2.1-0.9,3.5-0.9v1.3c-0.1,0-0.1,0-0.2,0
			c-0.1,0-0.1,0-0.2,0c-1.5,0-2.7,0.5-3.6,1.4c-0.9,1-1.3,2.3-1.3,4v7.2H186.5z"/>
		<path class="st1" d="M199.7,53.4c-1,0-1.9-0.2-2.7-0.5c-0.8-0.3-1.3-0.8-1.7-1.4s-0.6-1.3-0.6-2.1c0-0.7,0.2-1.4,0.5-1.9
			c0.3-0.6,0.9-1,1.6-1.4c0.8-0.4,1.8-0.5,3.1-0.5h5.1v1h-5.1c-1.4,0-2.4,0.3-3,0.8c-0.6,0.5-0.9,1.2-0.9,2c0,0.9,0.3,1.6,1,2.1
			c0.7,0.5,1.6,0.8,2.8,0.8c1.2,0,2.2-0.3,3-0.8c0.8-0.5,1.4-1.3,1.8-2.3l0.4,0.9c-0.4,1-1,1.8-1.9,2.4
			C202.2,53.1,201.1,53.4,199.7,53.4z M204.7,53.3v-3.2l-0.1-0.5v-5.2c0-1.3-0.3-2.3-1-2.9c-0.7-0.7-1.7-1-3.1-1
			c-1,0-1.8,0.2-2.7,0.5s-1.5,0.7-2.1,1.3l-0.7-1c0.7-0.6,1.5-1.1,2.5-1.4c1-0.3,2-0.5,3.1-0.5c1.7,0,3,0.4,4,1.3
			c0.9,0.9,1.4,2.2,1.4,3.9v8.8H204.7z"/>
		<path class="st1" d="M211.4,53.3V39.4h1.3v3.9l-0.2-0.4c0.4-1.1,1.1-2,2.1-2.6c1-0.6,2.2-0.9,3.6-0.9c1.1,0,2.1,0.2,3,0.7
			c0.8,0.4,1.5,1.1,2,2s0.7,2,0.7,3.3v8.1h-1.3v-8c0-1.6-0.4-2.7-1.2-3.6c-0.8-0.8-1.9-1.2-3.3-1.2c-1.1,0-2,0.2-2.8,0.7
			c-0.8,0.4-1.4,1.1-1.8,1.9c-0.4,0.8-0.6,1.8-0.6,2.9v7.4H211.4z"/>
		<path class="st1" d="M229.3,53.3V33.5h1.3v19.7H229.3z M230.3,49.4l0-1.7l9.2-8.4h1.7l-6.1,5.7l-0.8,0.7L230.3,49.4z M240.1,53.3
			l-6.1-7.6l0.9-1l6.8,8.6H240.1z"/>
		<path class="st1" d="M253.7,53.4c-1,0-2-0.2-2.8-0.7s-1.6-1.1-2.1-2l0.8-0.9c0.5,0.8,1.1,1.3,1.8,1.7c0.7,0.4,1.5,0.6,2.3,0.6
			c2.5,0,3.7-1.5,3.7-4.4V35.9h-6.9v-1.2h8.2v13.1c0,1.9-0.4,3.3-1.3,4.2C256.6,52.9,255.4,53.4,253.7,53.4z"/>
		<path class="st1" d="M264.6,53.3V39.4h1.3v3.8l-0.1-0.4c0.4-1.1,1-2,2-2.6c0.9-0.6,2.1-0.9,3.5-0.9v1.3c-0.1,0-0.1,0-0.2,0
			c-0.1,0-0.1,0-0.2,0c-1.5,0-2.7,0.5-3.6,1.4c-0.9,1-1.3,2.3-1.3,4v7.2H264.6z"/>
		<path class="st1" d="M274.7,53.4c-0.3,0-0.6-0.1-0.8-0.3c-0.2-0.2-0.3-0.5-0.3-0.8c0-0.3,0.1-0.6,0.3-0.8c0.2-0.2,0.5-0.3,0.8-0.3
			s0.6,0.1,0.8,0.3c0.2,0.2,0.3,0.5,0.3,0.8c0,0.3-0.1,0.6-0.3,0.8C275.2,53.3,275,53.4,274.7,53.4z"/>
	</g>
	<g>
		<path class="st2" d="M140.5,135.2l31.1-69.7h15.9l31.2,69.7h-16.9l-25.5-61.6h6.4l-25.6,61.6H140.5z M156.1,120.2l4.3-12.3h35.9
			l4.4,12.3H156.1z"/>
		<path class="st2" d="M224.9,135.2V81.6h14.8v15.1l-2.1-4.4c1.6-3.8,4.1-6.7,7.7-8.6c3.5-2,7.8-2.9,12.8-2.9v14.3
			c-0.7-0.1-1.3-0.1-1.8-0.1c-0.5,0-1.1,0-1.7,0c-4.3,0-7.7,1.2-10.3,3.6c-2.6,2.4-3.9,6.2-3.9,11.3v25.3H224.9z"/>
		<path class="st2" d="M267.4,135.2V61.3H283v31.2l-1,15.8l0.3,15.9v11H267.4z M299.1,135.9c-4.7,0-8.8-1-12.2-3c-3.4-2-6-5-7.8-9.1
			c-1.8-4.1-2.7-9.2-2.7-15.5c0-6.3,0.9-11.5,2.8-15.5c1.9-4,4.5-7.1,7.9-9.1c3.4-2,7.3-3,11.9-3c5,0,9.6,1.1,13.6,3.4
			c4,2.3,7.2,5.4,9.6,9.6c2.4,4.1,3.5,9,3.5,14.6c0,5.6-1.2,10.4-3.5,14.5c-2.4,4.1-5.5,7.3-9.6,9.6
			C308.7,134.8,304.2,135.9,299.1,135.9z M296.4,123.2c2.6,0,4.9-0.6,6.9-1.8c2-1.2,3.7-2.9,4.9-5.1c1.2-2.2,1.8-4.9,1.8-7.9
			c0-3.1-0.6-5.8-1.8-8c-1.2-2.2-2.9-3.9-4.9-5.1c-2-1.2-4.3-1.8-6.9-1.8c-2.6,0-4.9,0.6-7,1.8c-2.1,1.2-3.7,2.9-4.9,5.1
			c-1.2,2.2-1.8,4.8-1.8,8c0,3.1,0.6,5.7,1.8,7.9c1.2,2.2,2.8,3.9,4.9,5.1C291.5,122.6,293.8,123.2,296.4,123.2z"/>
		<path class="st2" d="M343.9,74.1c-2.9,0-5.2-0.8-7-2.5c-1.8-1.7-2.7-3.7-2.7-6.2c0-2.5,0.9-4.5,2.7-6.2c1.8-1.7,4.1-2.5,7-2.5
			c2.9,0,5.2,0.8,7,2.3c1.8,1.6,2.7,3.6,2.7,6c0,2.6-0.9,4.7-2.6,6.4C349.2,73.3,346.8,74.1,343.9,74.1z M336.2,135.2V81.6h15.5
			v53.6H336.2z"/>
		<path class="st2" d="M384.2,135.9c-4.6,0-9-0.5-13.2-1.6c-4.2-1.1-7.6-2.5-10-4.1l5.2-11.2c2.5,1.5,5.4,2.8,8.7,3.7
			c3.4,1,6.7,1.4,9.9,1.4c3.6,0,6.1-0.4,7.6-1.3c1.5-0.9,2.2-2.1,2.2-3.6c0-1.3-0.6-2.2-1.7-2.8c-1.2-0.6-2.7-1.1-4.6-1.4
			c-1.9-0.3-4-0.7-6.3-1c-2.3-0.3-4.6-0.8-6.9-1.3c-2.3-0.6-4.4-1.4-6.4-2.5c-1.9-1.1-3.5-2.7-4.6-4.6c-1.2-1.9-1.7-4.4-1.7-7.5
			c0-3.4,1-6.4,2.9-9c2-2.6,4.8-4.6,8.5-6.1c3.7-1.5,8.2-2.2,13.3-2.2c3.7,0,7.4,0.4,11.2,1.2c3.8,0.8,6.9,2,9.5,3.5l-5.2,11.1
			c-2.6-1.5-5.2-2.6-7.8-3.1c-2.6-0.6-5.2-0.8-7.6-0.8c-3.5,0-6,0.5-7.6,1.4c-1.6,0.9-2.4,2.1-2.4,3.6c0,1.3,0.6,2.3,1.7,3
			c1.2,0.7,2.7,1.2,4.6,1.6c1.9,0.4,4,0.7,6.3,1c2.3,0.3,4.6,0.7,6.9,1.3c2.3,0.6,4.4,1.4,6.3,2.5c1.9,1.1,3.4,2.6,4.6,4.5
			c1.2,1.9,1.8,4.4,1.8,7.4c0,3.3-1,6.3-3,8.8c-2,2.6-4.9,4.6-8.6,6C394.1,135.2,389.5,135.9,384.2,135.9z"/>
		<path class="st2" d="M444.5,135.9c-5.7,0-10.8-1.2-15.2-3.6c-4.4-2.4-7.9-5.7-10.5-9.8c-2.6-4.1-3.8-8.9-3.8-14.2
			c0-5.4,1.3-10.1,3.8-14.3c2.6-4.1,6-7.4,10.5-9.8c4.4-2.4,9.5-3.5,15.2-3.5c5.6,0,10.7,1.2,15.1,3.5c4.4,2.4,7.9,5.6,10.5,9.7
			c2.5,4.1,3.8,8.9,3.8,14.3c0,5.3-1.3,10-3.8,14.2c-2.5,4.2-6,7.4-10.5,9.8C455.2,134.8,450.2,135.9,444.5,135.9z M444.5,123.2
			c2.6,0,4.9-0.6,7-1.8c2.1-1.2,3.7-2.9,4.9-5.1c1.2-2.2,1.8-4.9,1.8-7.9c0-3.1-0.6-5.8-1.8-8c-1.2-2.2-2.8-3.9-4.9-5.1
			c-2.1-1.2-4.4-1.8-7-1.8c-2.6,0-4.9,0.6-7,1.8c-2.1,1.2-3.7,2.9-4.9,5.1c-1.2,2.2-1.8,4.8-1.8,8c0,3.1,0.6,5.7,1.8,7.9
			c1.2,2.2,2.9,3.9,4.9,5.1C439.6,122.6,441.9,123.2,444.5,123.2z"/>
	</g>
</g>
</svg>
