<?xml version="1.0" encoding="utf-8"?>
<!-- Generator: Adobe Illustrator 22.1.0, SVG Export Plug-In . SVG Version: 6.00 Build 0)  -->
<svg version="1.1" id="Layer_1" xmlns="http://www.w3.org/2000/svg" xmlns:xlink="http://www.w3.org/1999/xlink" x="0px" y="0px"
	 viewBox="0 0 485.2 197.1" style="enable-background:new 0 0 485.2 197.1;" xml:space="preserve">
<style type="text/css">
	.st0{fill:#E62727;}
	.st1{fill:#EFEFEF;}
</style>
<g>
	<g>
		<polygon class="st0" points="36.7,50.4 36.7,84 58.8,84 47.1,106.9 36.7,106.9 36.7,161 9.1,161 9.1,26.1 88.5,26.1 76.1,50.4 		
			"/>
		<rect x="94.6" y="114.3" class="st0" width="28.5" height="46.7"/>
		<path class="st0" d="M123.1,44.8v62.1H53.2L64.9,84h29.7V50.4H82.1l3.6-7.1c0,0,0-0.1,0-0.1l6.5-12.6l2.3-4.5h9.8
			C114.7,26.1,123.1,34.5,123.1,44.8z"/>
	</g>
	<g>
		<path class="st1" d="M169.3,63.7V45h12.5v1.2h-11.2v17.5H169.3z M170.5,55.5v-1.2h10.1v1.2H170.5z"/>
		<path class="st1" d="M185.5,63.7v-14h1.3v3.8l-0.1-0.4c0.4-1.1,1.1-2,2-2.6c0.9-0.6,2.1-0.9,3.5-0.9V51c-0.1,0-0.1,0-0.2,0
			c-0.1,0-0.1,0-0.2,0c-1.6,0-2.8,0.5-3.6,1.5c-0.9,1-1.3,2.3-1.3,4.1v7.3H185.5z"/>
		<path class="st1" d="M198.8,63.9c-1,0-1.9-0.2-2.7-0.5c-0.8-0.3-1.3-0.8-1.7-1.4s-0.6-1.3-0.6-2.1c0-0.7,0.2-1.4,0.5-1.9
			c0.3-0.6,0.9-1.1,1.6-1.4c0.8-0.4,1.8-0.5,3.1-0.5h5.1v1H199c-1.4,0-2.5,0.3-3,0.8s-0.9,1.2-0.9,2c0,0.9,0.3,1.6,1,2.1
			c0.7,0.5,1.6,0.8,2.9,0.8c1.2,0,2.2-0.3,3-0.8c0.8-0.5,1.4-1.3,1.8-2.3l0.4,0.9c-0.4,1-1,1.8-1.9,2.4
			C201.3,63.6,200.2,63.9,198.8,63.9z M203.8,63.7v-3.2l-0.1-0.5v-5.2c0-1.3-0.4-2.3-1.1-3s-1.7-1-3.1-1c-1,0-1.9,0.2-2.7,0.5
			c-0.8,0.3-1.5,0.8-2.1,1.3l-0.7-1c0.7-0.6,1.5-1.1,2.5-1.5c1-0.3,2-0.5,3.1-0.5c1.7,0,3.1,0.4,4,1.3c0.9,0.9,1.4,2.2,1.4,3.9v8.9
			H203.8z"/>
		<path class="st1" d="M210.6,63.7v-14h1.3v3.9l-0.2-0.4c0.4-1.1,1.1-2,2.1-2.6c1-0.6,2.2-0.9,3.6-0.9c1.1,0,2.1,0.2,3,0.7
			c0.8,0.4,1.5,1.1,2,2c0.5,0.9,0.7,2,0.7,3.3v8.2h-1.3v-8.1c0-1.6-0.4-2.8-1.2-3.6c-0.8-0.8-1.9-1.2-3.3-1.2c-1.1,0-2,0.2-2.8,0.7
			c-0.8,0.4-1.4,1.1-1.8,1.9c-0.4,0.8-0.6,1.8-0.6,2.9v7.4H210.6z"/>
		<path class="st1" d="M228.6,63.7V43.9h1.3v19.9H228.6z M229.6,59.9l0-1.7l9.2-8.4h1.7l-6.1,5.8l-0.8,0.7L229.6,59.9z M239.5,63.7
			l-6.1-7.7l0.9-1l6.8,8.6H239.5z"/>
		<path class="st1" d="M253.2,63.9c-1,0-2-0.2-2.8-0.7s-1.6-1.1-2.1-2l0.8-0.9c0.5,0.8,1.1,1.4,1.8,1.8s1.5,0.6,2.3,0.6
			c2.5,0,3.7-1.5,3.7-4.4v-12H250V45h8.3v13.2c0,1.9-0.4,3.3-1.3,4.2C256.1,63.4,254.9,63.9,253.2,63.9z"/>
		<path class="st1" d="M264.2,63.7v-14h1.3v3.8l-0.1-0.4c0.4-1.1,1.1-2,2-2.6c0.9-0.6,2.1-0.9,3.5-0.9V51c-0.1,0-0.1,0-0.2,0
			c-0.1,0-0.1,0-0.2,0c-1.6,0-2.8,0.5-3.6,1.5c-0.9,1-1.3,2.3-1.3,4.1v7.3H264.2z"/>
		<path class="st1" d="M274.3,63.9c-0.3,0-0.6-0.1-0.8-0.3c-0.2-0.2-0.3-0.5-0.3-0.8c0-0.3,0.1-0.6,0.3-0.8c0.2-0.2,0.5-0.3,0.8-0.3
			s0.6,0.1,0.8,0.3c0.2,0.2,0.3,0.5,0.3,0.8c0,0.3-0.1,0.6-0.3,0.8C274.9,63.7,274.6,63.9,274.3,63.9z"/>
	</g>
	<g>
		<path class="st1" d="M139.2,146.2L170.5,76h16.1l31.4,70.2h-17.1l-25.7-62h6.4l-25.8,62H139.2z M154.9,131.2l4.3-12.3h36.1
			l4.4,12.3H154.9z"/>
		<path class="st1" d="M224.2,146.2v-54h14.9v15.3l-2.1-4.4c1.6-3.8,4.2-6.7,7.7-8.7c3.5-2,7.9-3,12.9-3v14.4
			c-0.7-0.1-1.3-0.1-1.8-0.2c-0.5,0-1.1,0-1.7,0c-4.3,0-7.7,1.2-10.4,3.7c-2.6,2.4-4,6.2-4,11.4v25.5H224.2z"/>
		<path class="st1" d="M267,146.2V71.8h15.7v31.4l-1,16l0.3,16.1v11H267z M298.9,147.1c-4.8,0-8.8-1-12.2-3c-3.4-2-6-5.1-7.8-9.2
			c-1.8-4.1-2.7-9.3-2.7-15.6c0-6.4,1-11.6,2.9-15.7c1.9-4.1,4.6-7.1,8-9.1c3.4-2,7.4-3,11.9-3c5.1,0,9.6,1.1,13.7,3.4
			c4,2.3,7.3,5.5,9.6,9.6c2.4,4.1,3.6,9.1,3.6,14.7c0,5.6-1.2,10.5-3.6,14.6c-2.4,4.1-5.6,7.4-9.6,9.7
			C308.6,145.9,304,147.1,298.9,147.1z M296.2,134.2c2.6,0,4.9-0.6,7-1.8c2-1.2,3.7-2.9,4.9-5.2c1.2-2.2,1.9-4.9,1.9-8
			c0-3.1-0.6-5.8-1.9-8c-1.2-2.2-2.9-3.9-4.9-5.1c-2-1.2-4.4-1.8-7-1.8c-2.6,0-5,0.6-7,1.8c-2.1,1.2-3.7,2.9-4.9,5.1
			c-1.2,2.2-1.8,4.9-1.8,8c0,3.1,0.6,5.7,1.8,8c1.2,2.2,2.8,4,4.9,5.2C291.3,133.6,293.6,134.2,296.2,134.2z"/>
		<path class="st1" d="M344.1,84.7c-2.9,0-5.2-0.8-7-2.5c-1.8-1.7-2.7-3.7-2.7-6.2c0-2.5,0.9-4.5,2.7-6.2c1.8-1.7,4.1-2.5,7-2.5
			c2.9,0,5.2,0.8,7,2.4c1.8,1.6,2.7,3.6,2.7,6.1c0,2.6-0.9,4.8-2.7,6.5C349.4,83.9,347,84.7,344.1,84.7z M336.3,146.2v-54h15.7v54
			H336.3z"/>
		<path class="st1" d="M384.6,147.1c-4.6,0-9-0.6-13.3-1.7c-4.2-1.1-7.6-2.5-10.1-4.2l5.2-11.2c2.5,1.5,5.4,2.8,8.8,3.8
			c3.4,1,6.7,1.5,10,1.5c3.6,0,6.2-0.4,7.7-1.3c1.5-0.9,2.3-2.1,2.3-3.6c0-1.3-0.6-2.2-1.8-2.9c-1.2-0.6-2.7-1.1-4.7-1.5
			c-1.9-0.3-4.1-0.7-6.4-1c-2.3-0.3-4.6-0.8-7-1.4c-2.3-0.6-4.5-1.4-6.4-2.6c-1.9-1.1-3.5-2.7-4.7-4.6c-1.2-1.9-1.8-4.4-1.8-7.5
			c0-3.4,1-6.4,3-9c2-2.6,4.8-4.7,8.6-6.2c3.7-1.5,8.2-2.3,13.4-2.3c3.7,0,7.4,0.4,11.2,1.2s7,2,9.5,3.5l-5.2,11.1
			c-2.6-1.5-5.2-2.6-7.9-3.2c-2.6-0.6-5.2-0.9-7.7-0.9c-3.5,0-6,0.5-7.6,1.4c-1.6,0.9-2.4,2.1-2.4,3.6c0,1.3,0.6,2.3,1.8,3
			c1.2,0.7,2.7,1.2,4.7,1.6c1.9,0.4,4.1,0.8,6.4,1.1c2.3,0.3,4.6,0.8,7,1.4c2.3,0.6,4.5,1.5,6.4,2.6s3.5,2.6,4.7,4.5
			s1.8,4.4,1.8,7.5c0,3.3-1,6.3-3,8.9c-2,2.6-4.9,4.6-8.7,6.1C394.6,146.3,390,147.1,384.6,147.1z"/>
		<path class="st1" d="M445.4,147.1c-5.8,0-10.9-1.2-15.3-3.6c-4.4-2.4-8-5.7-10.5-9.9c-2.6-4.2-3.9-8.9-3.9-14.3
			c0-5.4,1.3-10.2,3.9-14.4c2.6-4.2,6.1-7.5,10.5-9.8c4.4-2.4,9.5-3.6,15.3-3.6c5.7,0,10.8,1.2,15.3,3.6c4.5,2.4,8,5.6,10.5,9.8
			c2.5,4.1,3.8,9,3.8,14.4c0,5.4-1.3,10.1-3.8,14.3c-2.5,4.2-6.1,7.5-10.5,9.9C456.2,145.8,451.1,147.1,445.4,147.1z M445.4,134.2
			c2.6,0,4.9-0.6,7-1.8c2.1-1.2,3.7-2.9,4.9-5.2c1.2-2.2,1.8-4.9,1.8-8c0-3.1-0.6-5.8-1.8-8c-1.2-2.2-2.8-3.9-4.9-5.1
			c-2.1-1.2-4.4-1.8-7-1.8c-2.6,0-5,0.6-7,1.8c-2.1,1.2-3.7,2.9-5,5.1c-1.2,2.2-1.9,4.9-1.9,8c0,3.1,0.6,5.7,1.9,8
			c1.2,2.2,2.9,4,5,5.2C440.5,133.6,442.8,134.2,445.4,134.2z"/>
	</g>
</g>
</svg>
